<svg xmlns="http://www.w3.org/2000/svg" viewBox="0 0 400 200">
  <defs>
    <linearGradient id="bg" x1="0%" y1="0%" x2="100%" y2="100%">
      <stop offset="0%" style="stop-color:#fce7f3"/>
      <stop offset="100%" style="stop-color:#fecdd3"/>
    </linearGradient>
  </defs>
  <rect width="400" height="200" fill="url(#bg)" rx="0"/>
  <!-- Plate -->
  <ellipse cx="200" cy="120" rx="85" ry="38" fill="#f1f1f1" stroke="#d4d4d4" stroke-width="1.5"/>
  <ellipse cx="200" cy="118" rx="75" ry="32" fill="#fafafa"/>
  <ellipse cx="200" cy="118" rx="68" ry="28" fill="#fff"/>
  <!-- Pasta/noodle curves -->
  <path d="M165 110 Q180 100 195 110 Q210 120 225 110" fill="none" stroke="#f59e0b" stroke-width="3" opacity="0.7" stroke-linecap="round"/>
  <path d="M170 118 Q185 108 200 118 Q215 128 230 118" fill="none" stroke="#eab308" stroke-width="3" opacity="0.6" stroke-linecap="round"/>
  <path d="M160 124 Q175 114 190 124 Q205 134 220 124" fill="none" stroke="#f59e0b" stroke-width="2.5" opacity="0.5" stroke-linecap="round"/>
  <!-- Sauce -->
  <ellipse cx="200" cy="112" rx="30" ry="15" fill="#dc2626" opacity="0.4"/>
  <ellipse cx="195" cy="110" rx="20" ry="10" fill="#b91c1c" opacity="0.3"/>
  <!-- Herb garnish -->
  <ellipse cx="215" cy="104" rx="6" ry="3" fill="#22c55e" opacity="0.7" transform="rotate(-30 215 104)"/>
  <ellipse cx="220" cy="108" rx="5" ry="2.5" fill="#16a34a" opacity="0.6" transform="rotate(20 220 108)"/>
  <ellipse cx="182" cy="106" rx="5" ry="2.5" fill="#22c55e" opacity="0.6" transform="rotate(-10 182 106)"/>
  <!-- Steam -->
  <path d="M190 82 Q193 72 190 62" fill="none" stroke="#d4d4d4" stroke-width="1.5" opacity="0.3" stroke-linecap="round"/>
  <path d="M205 80 Q208 70 205 60" fill="none" stroke="#d4d4d4" stroke-width="1.5" opacity="0.3" stroke-linecap="round"/>
  <path d="M220 82 Q223 72 220 62" fill="none" stroke="#d4d4d4" stroke-width="1.5" opacity="0.3" stroke-linecap="round"/>
  <!-- Fork -->
  <line x1="110" y1="80" x2="145" y2="140" stroke="#9ca3af" stroke-width="2" opacity="0.4"/>
  <line x1="108" y1="78" x2="112" y2="90" stroke="#9ca3af" stroke-width="1.5" opacity="0.4"/>
  <line x1="112" y1="78" x2="114" y2="90" stroke="#9ca3af" stroke-width="1.5" opacity="0.4"/>
  <line x1="116" y1="79" x2="116" y2="91" stroke="#9ca3af" stroke-width="1.5" opacity="0.4"/>
</svg>
