<svg xmlns="http://www.w3.org/2000/svg" viewBox="0 0 80 80" fill="none">
  <circle cx="40" cy="40" r="37" stroke="#155E5E" stroke-width="2.5" />
  <g stroke="#155E5E" stroke-width="2" stroke-linecap="round" fill="none">
    <path d="M40 58 L40 30" />
    <path d="M40 52 C34 50 30 46 29 41" />
    <path d="M29 41 C32 42 36 46 40 52" />
    <path d="M40 52 C46 50 50 46 51 41" />
    <path d="M51 41 C48 42 44 46 40 52" />
    <path d="M40 44 C33 41 28 36 27 30" />
    <path d="M27 30 C31 32 36 37 40 44" />
    <path d="M40 44 C47 41 52 36 53 30" />
    <path d="M53 30 C49 32 44 37 40 44" />
    <path d="M40 36 C35 33 31 28 30 22" />
    <path d="M30 22 C33 24 37 29 40 36" />
    <path d="M40 36 C45 33 49 28 50 22" />
    <path d="M50 22 C47 24 43 29 40 36" />
  </g>
</svg>
