<?xml version="1.0" encoding="UTF-8"?>
<svg id="Logo" xmlns="http://www.w3.org/2000/svg" viewBox="0 0 109.58 109.58">
  <defs>
    <style>
      .cls-1 {
        fill: #0f4c5c;
      }
    </style>
  </defs>
  <g id="Logo-5" data-name="Logo">
    <g id="Icon-4" data-name="Icon">
      <path class="cls-1" d="M54.79,4.49C27.01,4.49,4.49,27.01,4.49,54.79s22.52,50.31,50.31,50.31,50.31-22.52,50.31-50.31S82.58,4.49,54.79,4.49ZM54.79,100.17c-25.06,0-45.38-20.32-45.38-45.38S29.73,9.41,54.79,9.41s45.38,20.32,45.38,45.38-20.32,45.38-45.38,45.38Z"/>
      <g id="_3" data-name="3">
        <path class="cls-1" d="M45.74,73.01c-3.72-7.23-11.88-15.39-29.89-15.08,0,0-.9.21-.41,1.1.51,1,1.82,2,2.92,4.82.59,1.72,2.1,5.75,5.44,8.85.69.69,1.62,1.41,2.62,2,1.72,1,3.82,1.72,6.34,1.92h.21c7.16.62,12.57,6.54,12.57,13.67l-.31,8.93c1.18.28,2.39.49,3.62.67v-16.24s-.1-2.82-1.41-6.64c-.41-1.31-1-2.62-1.72-4.03l.03.03Z"/>
        <path class="cls-1" d="M60.44,39.12c0-5.93-2.21-11.26-5.93-15.29-3.72,4.03-6.03,9.47-6.03,15.29s2.31,11.26,6.03,15.29c3.72-4.03,5.93-9.36,5.93-15.29h0Z"/>
        <path class="cls-1" d="M74.83,56.2c9.85-4.51,13.29-17.11,13.57-18.11.31-.9-.51-.9-.51-.9-28.68.31-33.09,32.3-33.09,32.3,0,0-4.44-31.89-33.09-32.3,0,0-.8-.1-.51.9s3.62,13.57,13.57,18.11c7.44,3.41,13.19,5.75,16.19,12.67,1,2.51,1.51,5.23,1.51,7.95v23.45c.8.05,1.62.08,2.41.08.74,0,1.49,0,2.21-.03v-23.5c0-2.72.41-5.44,1.51-7.95,3.03-6.95,8.75-9.26,16.19-12.67h.05Z"/>
        <path class="cls-1" d="M93.73,58.02c-18.01-.31-26.17,7.85-29.89,15.08-.69,1.41-1.31,2.82-1.72,4.03-1.31,3.82-1.41,6.64-1.41,6.64v16.29c1.23-.13,2.41-.33,3.62-.56l-.28-9.06c0-7.13,5.44-13.08,12.57-13.67h.21c2.51-.1,4.62-.9,6.34-1.92,1-.62,1.82-1.31,2.62-2,3.31-3.13,4.82-7.13,5.44-8.85,1-2.82,2.41-3.92,2.92-4.82.41-1-.41-1.1-.41-1.1v-.05Z"/>
      </g>
    </g>
  </g>
</svg>