<?xml version="1.0" encoding="UTF-8"?>
<svg id="Logo" xmlns="http://www.w3.org/2000/svg" viewBox="0 0 195.17 60.91">
  <defs>
    <style>
      .cls-1 {
        fill-rule: evenodd;
      }

      .cls-1, .cls-2 {
        fill: #0f4c5c;
      }
    </style>
  </defs>
  <g id="Logo-4" data-name="Logo">
    <g id="Text-4" data-name="Text">
      <g id="Text-5" data-name="Text">
        <g>
          <g id="Beth_Motley_MD" data-name="Beth Motley, MD">
            <path class="cls-1" d="M78.37,15.02c-.64-.32-1.29-.51-1.96-.57.94-.21,1.73-.62,2.35-1.21s.94-1.4.94-2.42c0-1.28-.48-2.21-1.45-2.81s-2.19-.9-3.67-.9h-6.62v.8l.41.05c.47.05.84.16,1.1.35.26.19.39.5.39.92v11.71c0,.43-.13.73-.39.92-.26.19-.62.31-1.1.35l-.41.05v.8h7.03c1.69,0,3.05-.38,4.08-1.13,1.03-.75,1.54-1.86,1.54-3.34,0-.85-.21-1.58-.64-2.19-.43-.61-.96-1.07-1.6-1.39ZM72.09,8.16h1.94c2.24,0,3.36.97,3.36,2.92,0,1.03-.29,1.8-.87,2.3-.58.5-1.36.75-2.35.75h-2.08v-5.97ZM74.69,22.02h-1.12c-.5,0-.88-.07-1.12-.22-.24-.14-.37-.43-.37-.85v-5.76h2.26c1.16,0,2.09.28,2.79.85.7.57,1.05,1.46,1.05,2.68,0,2.2-1.16,3.3-3.49,3.3ZM90.34,21.12c-.52.3-1.11.44-1.78.44-1.08,0-1.99-.4-2.74-1.21-.75-.81-1.13-2.02-1.14-3.65h7.51c.02-.14.02-.36.02-.66,0-.79-.17-1.53-.51-2.21s-.86-1.23-1.54-1.64c-.69-.41-1.5-.62-2.44-.62-.85,0-1.67.25-2.44.75-.78.5-1.4,1.22-1.88,2.15-.48.93-.72,2-.72,3.2,0,1.12.21,2.12.64,2.97s1.02,1.52,1.78,1.98c.76.46,1.62.69,2.58.69s1.91-.27,2.71-.8c.8-.53,1.46-1.34,1.98-2.44l-.53-.34c-.47.61-.97,1.06-1.48,1.36ZM85.7,13.36c.52-.56,1.12-.84,1.8-.84.73,0,1.31.29,1.74.87.43.58.68,1.35.75,2.32h-5.28c.14-1,.46-1.78.98-2.35ZM97.39,20.22v-7.18h2.88l.3-1.18h-3.17v-2.87h-.91c-.64,1.76-1.64,2.88-3.01,3.35v.71h1.78v7.59c0,.9.24,1.57.71,2.02.47.45,1.14.67,2.01.67.5,0,1-.1,1.48-.3.49-.2.91-.48,1.28-.84v-.68c-.55.24-1.11.36-1.69.36-1.1,0-1.64-.55-1.64-1.64ZM110.22,21.94c-.16.17-.45.28-.86.33l-.41.05v.75h5.16v-.75l-.41-.05c-.41-.05-.7-.16-.86-.33-.16-.17-.24-.49-.24-.95v-6.13c0-.9-.29-1.67-.86-2.34-.57-.66-1.42-.99-2.55-.99-.78,0-1.5.19-2.16.57s-1.18.84-1.54,1.37v-7.27h-.21l-3.45,1.03v.59c.44.14.77.25.97.35.21.1.35.22.42.38.08.15.11.38.11.68v11.76c0,.46-.08.77-.24.95-.16.17-.45.28-.86.33l-.41.05v.75h5.16v-.75l-.41-.05c-.41-.05-.7-.16-.86-.33-.16-.17-.24-.49-.24-.95v-6.9c.35-.33.76-.6,1.22-.81.46-.21.96-.31,1.5-.31.69,0,1.23.22,1.63.65.4.43.61,1.04.61,1.81v5.56c0,.46-.08.77-.24.95ZM126.31,22.27l-.37-.05c-.5-.06-.88-.22-1.14-.47-.26-.25-.39-.67-.39-1.26v-10.66l5.8,13.24h.78l5.89-13.31v11.19c0,.43-.13.73-.39.92-.26.19-.62.31-1.1.35l-.41.05v.8h6.03v-.8l-.41-.05c-.47-.05-.84-.16-1.1-.35-.26-.19-.39-.5-.39-.92v-11.71c0-.43.13-.73.39-.92.26-.19.62-.31,1.1-.35l.41-.05v-.8h-4.39l-5.57,12.69-5.57-12.69h-4.34v.8l.41.05c.47.05.84.16,1.1.35.26.19.39.5.39.92v11.26c0,.59-.13,1.01-.39,1.26-.26.25-.64.41-1.14.47l-.37.05v.8h5.16v-.8ZM150.58,12.31c-.86-.49-1.79-.73-2.8-.73s-1.94.25-2.8.75c-.86.5-1.55,1.2-2.06,2.11-.51.9-.77,1.93-.77,3.06s.26,2.15.77,3.04c.51.89,1.2,1.58,2.06,2.06.86.49,1.79.73,2.8.73s1.94-.25,2.8-.75c.86-.5,1.55-1.2,2.06-2.11.51-.9.77-1.93.77-3.06s-.26-2.15-.77-3.04c-.51-.89-1.2-1.58-2.06-2.06ZM150.22,21.15c-.53.82-1.3,1.23-2.31,1.23-.7,0-1.31-.25-1.82-.75s-.9-1.16-1.16-1.98c-.27-.82-.4-1.7-.4-2.64,0-1.34.27-2.42.8-3.24.53-.82,1.3-1.23,2.31-1.23.67,0,1.26.24,1.78.71.52.47.91,1.11,1.19,1.93.27.81.41,1.73.41,2.75,0,1.34-.27,2.42-.8,3.24ZM158.54,20.22v-7.18h2.88l.3-1.18h-3.17v-2.87h-.91c-.64,1.76-1.64,2.88-3.01,3.35v.71h1.78v7.59c0,.9.24,1.57.71,2.02s1.14.67,2.01.67c.5,0,1-.1,1.48-.3.49-.2.91-.48,1.28-.84v-.68c-.55.24-1.11.36-1.69.36-1.1,0-1.64-.55-1.64-1.64ZM166.88,21.94c-.16-.17-.24-.49-.24-.95V6.2h-.21l-3.45,1.03v.59c.44.14.77.25.97.35.21.1.35.22.42.38.08.15.11.38.11.68v11.76c0,.46-.08.77-.24.95-.16.17-.45.28-.86.33l-.41.05v.75h5.16v-.75l-.41-.05c-.41-.05-.7-.16-.86-.33ZM177.06,21.12c-.52.3-1.11.44-1.78.44-1.08,0-1.99-.4-2.74-1.21-.75-.81-1.13-2.02-1.14-3.65h7.51c.02-.14.02-.36.02-.66,0-.79-.17-1.53-.51-2.21s-.86-1.23-1.54-1.64c-.69-.41-1.5-.62-2.44-.62-.85,0-1.67.25-2.44.75-.78.5-1.4,1.22-1.88,2.15-.48.93-.72,2-.72,3.2,0,1.12.21,2.12.64,2.97.43.86,1.02,1.52,1.78,1.98.76.46,1.62.69,2.58.69s1.91-.27,2.71-.8c.8-.53,1.46-1.34,1.98-2.44l-.53-.34c-.47.61-.97,1.06-1.48,1.36ZM172.42,13.36c.52-.56,1.12-.84,1.8-.84.73,0,1.31.29,1.74.87.43.58.68,1.35.75,2.32h-5.28c.14-1,.46-1.78.98-2.35ZM190.61,13.26c.3-.34.67-.56,1.13-.65v-.75h-4.32v.75l.43.07c.3.05.54.14.7.28.16.14.24.35.24.63,0,.3-.11.73-.34,1.28l-2.26,5.38-2.31-5.51c-.23-.53-.34-.93-.34-1.21,0-.24.09-.43.26-.56s.45-.22.83-.28l.43-.07v-.75h-5.09v.75c.29.05.53.15.71.31.18.16.36.4.53.72.17.32.4.83.71,1.53l3.24,7.54-.09.21c-.37.88-.65,1.52-.85,1.91-.2.39-.38.67-.55.83-.17.16-.37.24-.62.24-.21,0-.43-.04-.66-.11-.3-.09-.59-.14-.85-.14-.41,0-.75.16-1.03.48-.27.32-.46.7-.55,1.14.5.43,1.13.64,1.87.64.56,0,1.06-.14,1.5-.41s.86-.74,1.29-1.4c.43-.66.91-1.61,1.44-2.84l3.52-8.13c.38-.9.72-1.52,1.02-1.86ZM192.16,20.91c-.29-.39-.71-.58-1.26-.58-.38,0-.71.13-.99.39-.28.26-.42.57-.42.93,0,.32.07.57.22.74.14.17.36.37.65.58.23.17.4.31.5.43s.16.28.16.48c0,.4-.17.75-.51,1.07-.34.32-.78.52-1.31.62v.77c.72-.06,1.33-.29,1.85-.7.52-.4.91-.89,1.16-1.47.26-.58.39-1.16.39-1.75,0-.62-.14-1.13-.43-1.52ZM121.68,40.81l-5.57-12.69h-4.34v.8l.41.05c.47.05.84.16,1.1.35.26.19.39.5.39.92v11.26c0,.59-.13,1.01-.39,1.26s-.64.41-1.14.47l-.37.05v.8h5.16v-.8l-.37-.05c-.5-.06-.88-.22-1.14-.47s-.39-.67-.39-1.26v-10.66l5.8,13.24h.78l5.89-13.31v11.19c0,.43-.13.73-.39.92-.26.19-.62.31-1.1.35l-.41.05v.8h6.03v-.8l-.41-.05c-.47-.05-.84-.16-1.1-.35-.26-.19-.39-.5-.39-.92v-11.71c0-.43.13-.73.39-.92.26-.19.62-.31,1.1-.35l.41-.05v-.8h-4.39l-5.57,12.69ZM145.01,29.07c-1.2-.64-2.56-.96-4.1-.96h-7.17v.8l.41.05c.47.05.84.16,1.1.35.26.19.39.5.39.92v11.71c0,.43-.13.73-.39.92-.26.19-.62.31-1.1.35l-.41.05v.8h7.17c1.54,0,2.9-.33,4.1-.98,1.2-.65,2.13-1.58,2.8-2.79.67-1.21,1-2.62,1-4.25s-.33-3.02-1-4.22c-.67-1.2-1.6-2.12-2.8-2.76ZM145.56,39.98c-.46.98-1.11,1.73-1.94,2.26-.83.52-1.79.79-2.87.79h-1.39c-.5,0-.88-.07-1.12-.22-.24-.14-.37-.43-.37-.85v-12.78h2.56c1.22,0,2.26.32,3.14.96.88.64,1.54,1.52,2,2.63s.69,2.38.69,3.79c0,1.31-.23,2.45-.7,3.43Z"/>
          </g>
          <g id="LIFESTYLE_MEDICINE" data-name="LIFESTYLE MEDICINE">
            <path class="cls-1" d="M68.55,49.24h-.63v5.33h3.08v-.59h-2.44v-4.74ZM74.7,54.57h.63v-5.33h-.63v5.33ZM79.68,54.57h.63v-2.39h2.49v-.59h-2.49v-1.76h2.68v-.59h-3.31v5.33ZM87.52,52.09h2.54v-.59h-2.54v-1.67h2.72v-.59h-3.36v5.33h3.49v-.59h-2.86v-1.9ZM97.03,52.07c-.15-.12-.32-.21-.51-.29-.19-.08-.39-.15-.6-.21-.21-.07-.39-.13-.54-.2-.15-.07-.26-.14-.35-.21-.09-.08-.15-.16-.18-.25-.04-.09-.06-.2-.06-.32,0-.16.03-.29.1-.41.07-.12.15-.21.26-.28.11-.07.23-.12.37-.16.14-.04.27-.05.41-.05.19,0,.37.04.55.12.18.08.32.2.42.37l.52-.45c-.2-.23-.42-.39-.67-.49-.25-.09-.52-.14-.83-.14-.24,0-.46.03-.68.1-.22.07-.41.16-.58.29-.17.13-.31.29-.41.48-.1.19-.15.41-.15.67,0,.22.03.41.1.57s.16.29.28.41c.12.11.26.21.42.29.16.08.34.15.53.21.24.08.44.15.62.21.18.06.32.13.44.2.12.08.2.16.26.27.06.1.08.24.08.4,0,.15-.04.28-.11.4-.07.12-.16.21-.27.29-.11.08-.24.14-.37.18-.14.04-.28.06-.41.06-.23,0-.45-.05-.66-.15-.21-.1-.37-.25-.48-.44l-.54.44c.09.14.2.25.32.34.13.09.26.17.4.23.14.06.29.1.45.13.16.03.31.04.47.04.24,0,.48-.03.7-.09.23-.06.43-.16.6-.29s.31-.29.42-.49c.11-.2.16-.43.16-.69s-.04-.48-.13-.65c-.09-.17-.21-.32-.35-.43ZM101.01,49.83h1.76v4.74h.63v-4.74h1.76v-.59h-4.16v.59ZM110.51,51.65l-1.5-2.41h-.81l1.99,3.03v2.29h.63v-2.29l1.99-3.03h-.76l-1.55,2.41ZM117.06,49.24h-.63v5.33h3.08v-.59h-2.44v-4.74ZM123.85,52.09h2.54v-.59h-2.54v-1.67h2.72v-.59h-3.36v5.33h3.49v-.59h-2.86v-1.9ZM138.59,53.42h-.02l-1.81-4.18h-.94v5.33h.63v-4.47h.02l1.92,4.47h.38l1.92-4.47h.02v4.47h.63v-5.33h-.92l-1.83,4.18ZM146.31,52.09h2.54v-.59h-2.54v-1.67h2.72v-.59h-3.36v5.33h3.49v-.59h-2.86v-1.9ZM157.29,50.35c-.14-.2-.29-.37-.47-.51-.18-.14-.36-.25-.56-.34-.19-.09-.39-.15-.58-.19-.2-.04-.38-.06-.56-.06h-2.05v5.33h2.05c.18,0,.36-.02.56-.06.2-.04.39-.1.58-.19.19-.09.38-.2.56-.34.18-.14.34-.31.47-.51.14-.2.24-.43.32-.68.08-.26.12-.55.12-.88s-.04-.62-.12-.88c-.08-.26-.19-.49-.32-.68ZM156.89,52.85c-.11.26-.26.48-.45.64-.19.17-.42.29-.68.37-.26.08-.55.12-.85.12h-1.21v-4.15h1.21c.31,0,.59.04.85.12.26.08.49.2.68.37.19.17.34.38.45.64.11.26.17.57.17.94s-.06.68-.17.94ZM161.77,54.57h.63v-5.33h-.63v5.33ZM170.03,53.93c-.26.13-.55.19-.87.19-.3,0-.58-.06-.83-.17-.25-.12-.46-.27-.64-.47-.18-.2-.32-.43-.42-.7-.1-.27-.15-.56-.15-.87,0-.29.05-.57.15-.84.1-.27.24-.5.42-.71.18-.2.4-.36.64-.49.25-.12.52-.18.82-.18.26,0,.5.05.74.16.24.11.43.27.6.49l.55-.4c-.23-.3-.51-.51-.84-.64-.33-.13-.68-.2-1.04-.2-.4,0-.76.07-1.09.22-.33.15-.62.34-.86.59-.24.25-.43.55-.56.89-.13.34-.2.71-.2,1.1s.07.78.21,1.12c.14.34.33.64.57.88.24.25.53.44.86.58.33.14.69.21,1.07.21.43,0,.81-.08,1.15-.23.34-.15.63-.39.87-.71l-.48-.4c-.19.24-.41.43-.67.55ZM175.07,54.57h.63v-5.33h-.63v5.33ZM183.96,53.67h-.02l-3.09-4.42h-.8v5.33h.63v-4.42h.02l3.09,4.42h.8v-5.33h-.63v4.42ZM189.57,53.98v-1.9h2.54v-.59h-2.54v-1.67h2.72v-.59h-3.36v5.33h3.49v-.59h-2.86Z"/>
          </g>
        </g>
      </g>
    </g>
    <g id="Icon-3" data-name="Icon">
      <g id="Icon-4" data-name="Icon">
        <path class="cls-2" d="M30.43,2.61C15.05,2.61,2.59,15.08,2.59,30.45s12.46,27.84,27.84,27.84,27.84-12.46,27.84-27.84S45.8,2.61,30.43,2.61ZM30.43,55.57c-13.87,0-25.11-11.24-25.11-25.11S16.56,5.34,30.43,5.34s25.11,11.24,25.11,25.11-11.24,25.11-25.11,25.11Z"/>
        <g id="_3" data-name="3">
          <path class="cls-2" d="M25.41,40.53c-2.06-4-6.57-8.52-16.54-8.35,0,0-.5.11-.23.61.28.55,1.01,1.11,1.62,2.67.33.95,1.16,3.18,3.01,4.9.38.38.89.78,1.45,1.11.95.55,2.12.95,3.51,1.06h.11c3.96.34,6.96,3.62,6.96,7.57l-.17,4.94c.65.16,1.32.27,2,.37v-8.99s-.06-1.56-.78-3.68c-.23-.72-.55-1.45-.95-2.23h.01Z"/>
          <path class="cls-2" d="M33.55,21.78c0-3.28-1.22-6.23-3.28-8.46-2.06,2.23-3.34,5.24-3.34,8.46s1.28,6.23,3.34,8.46c2.06-2.23,3.28-5.18,3.28-8.46h0Z"/>
          <path class="cls-2" d="M41.51,31.24c5.45-2.5,7.35-9.47,7.51-10.02.17-.5-.28-.5-.28-.5-15.87.17-18.31,17.87-18.31,17.87,0,0-2.46-17.65-18.31-17.87,0,0-.44-.06-.28.5s2,7.51,7.51,10.02c4.12,1.89,7.3,3.18,8.96,7.01.55,1.39.84,2.9.84,4.4v12.98c.44.03.89.04,1.33.04.41,0,.82,0,1.22-.01v-13c0-1.5.23-3.01.84-4.4,1.68-3.85,4.84-5.13,8.96-7.01h.03Z"/>
          <path class="cls-2" d="M51.98,32.24c-9.97-.17-14.48,4.34-16.54,8.35-.38.78-.72,1.56-.95,2.23-.72,2.12-.78,3.68-.78,3.68v9.02c.68-.07,1.33-.18,2-.31l-.16-5.01c0-3.95,3.01-7.24,6.96-7.57h.11c1.39-.06,2.56-.5,3.51-1.06.55-.34,1.01-.72,1.45-1.11,1.83-1.73,2.67-3.95,3.01-4.9.55-1.56,1.33-2.17,1.62-2.67.23-.55-.23-.61-.23-.61v-.03Z"/>
        </g>
      </g>
    </g>
  </g>
</svg>