<?xml version="1.0" encoding="UTF-8"?>
<svg id="Logo" xmlns="http://www.w3.org/2000/svg" viewBox="0 0 229.4 50.88">
  <defs>
    <style>
      .cls-1 {
        fill-rule: evenodd;
      }

      .cls-1, .cls-2 {
        fill: #0f4c5c;
      }

      .cls-3 {
        fill: #d1e231;
      }
    </style>
  </defs>
  <g id="Logo-3" data-name="Logo">
    <g id="Text-2" data-name="Text">
      <g id="Text-3" data-name="Text">
        <g>
          <g id="Beth_Motley_MD" data-name="Beth Motley, MD">
            <path class="cls-1" d="M67.6,17.49c-.64-.32-1.29-.51-1.96-.57.94-.21,1.73-.62,2.35-1.21.62-.59.94-1.4.94-2.42,0-1.28-.48-2.21-1.45-2.81s-2.19-.9-3.67-.9h-6.62v.8l.41.05c.47.05.84.16,1.1.35.26.19.39.5.39.92v11.71c0,.43-.13.73-.39.92-.26.19-.62.31-1.1.35l-.41.05v.8h7.03c1.69,0,3.05-.38,4.08-1.13,1.03-.75,1.54-1.86,1.54-3.34,0-.85-.21-1.58-.64-2.19-.43-.61-.96-1.07-1.6-1.39ZM61.32,10.64h1.94c2.24,0,3.36.97,3.36,2.92,0,1.03-.29,1.8-.87,2.3-.58.5-1.36.75-2.35.75h-2.08v-5.97ZM63.93,24.49h-1.12c-.5,0-.88-.07-1.12-.22-.24-.14-.37-.43-.37-.85v-5.76h2.26c1.16,0,2.09.28,2.79.85.7.57,1.05,1.46,1.05,2.68,0,2.2-1.16,3.3-3.49,3.3ZM79.57,23.59c-.52.3-1.11.44-1.78.44-1.08,0-1.99-.4-2.74-1.21-.75-.81-1.13-2.02-1.14-3.65h7.51c.02-.14.02-.36.02-.66,0-.79-.17-1.53-.51-2.21-.34-.68-.86-1.23-1.54-1.64-.69-.41-1.5-.62-2.44-.62-.85,0-1.67.25-2.44.75-.78.5-1.4,1.22-1.88,2.15-.48.93-.72,2-.72,3.2,0,1.12.21,2.12.64,2.97s1.02,1.52,1.78,1.98c.76.46,1.62.69,2.58.69s1.91-.27,2.71-.8c.8-.53,1.46-1.34,1.98-2.44l-.53-.34c-.47.61-.97,1.06-1.48,1.36ZM74.93,15.83c.52-.56,1.12-.84,1.8-.84.73,0,1.31.29,1.74.87.43.58.68,1.35.75,2.32h-5.28c.14-1,.46-1.78.98-2.35ZM86.63,22.69v-7.18h2.88l.3-1.18h-3.17v-2.87h-.91c-.64,1.76-1.64,2.88-3.01,3.35v.71h1.78v7.59c0,.9.24,1.57.71,2.02.47.45,1.14.67,2.01.67.5,0,1-.1,1.48-.3.49-.2.91-.48,1.28-.84v-.68c-.55.24-1.11.36-1.69.36-1.1,0-1.64-.55-1.64-1.64ZM102.08,24.41c-.16-.17-.24-.49-.24-.95v-6.13c0-.9-.29-1.67-.86-2.34-.57-.66-1.42-.99-2.55-.99-.78,0-1.5.19-2.16.57s-1.18.84-1.54,1.37v-7.27h-.21l-3.45,1.03v.59c.44.14.77.25.97.35.21.1.35.22.42.38.08.15.11.38.11.68v11.76c0,.46-.08.77-.24.95-.16.17-.45.28-.86.33l-.41.05v.75h5.16v-.75l-.41-.05c-.41-.05-.7-.16-.86-.33-.16-.17-.24-.49-.24-.95v-6.9c.35-.33.76-.6,1.22-.81.46-.21.96-.31,1.5-.31.69,0,1.23.22,1.63.65.4.43.61,1.04.61,1.81v5.56c0,.46-.08.77-.24.95-.16.17-.45.28-.86.33l-.41.05v.75h5.16v-.75l-.41-.05c-.41-.05-.7-.16-.86-.33ZM120.29,22.28l-5.57-12.69h-4.34v.8l.41.05c.47.05.84.16,1.1.35.26.19.39.5.39.92v11.26c0,.59-.13,1.01-.39,1.26-.26.25-.64.41-1.14.47l-.37.05v.8h5.16v-.8l-.37-.05c-.5-.06-.88-.22-1.14-.47-.26-.25-.39-.67-.39-1.26v-10.66l5.8,13.24h.78l5.89-13.31v11.19c0,.43-.13.73-.39.92-.26.19-.62.31-1.1.35l-.41.05v.8h6.03v-.8l-.41-.05c-.47-.05-.84-.16-1.1-.35-.26-.19-.39-.5-.39-.92v-11.71c0-.43.13-.73.39-.92.26-.19.62-.31,1.1-.35l.41-.05v-.8h-4.39l-5.57,12.69ZM139.81,14.78c-.86-.49-1.79-.73-2.8-.73s-1.94.25-2.8.75c-.86.5-1.55,1.2-2.06,2.11-.51.9-.77,1.93-.77,3.06s.26,2.15.77,3.04c.51.89,1.2,1.58,2.06,2.06.86.49,1.79.73,2.8.73s1.94-.25,2.8-.75c.86-.5,1.55-1.2,2.06-2.11.51-.9.77-1.93.77-3.06s-.26-2.15-.77-3.04c-.51-.89-1.2-1.58-2.06-2.06ZM139.46,23.62c-.53.82-1.3,1.23-2.31,1.23-.7,0-1.31-.25-1.82-.75-.51-.5-.9-1.16-1.16-1.98-.27-.82-.4-1.7-.4-2.64,0-1.34.27-2.42.8-3.24.53-.82,1.3-1.23,2.31-1.23.67,0,1.26.24,1.78.71.52.47.91,1.11,1.19,1.93.27.81.41,1.73.41,2.75,0,1.34-.27,2.42-.8,3.24ZM147.77,22.69v-7.18h2.88l.3-1.18h-3.17v-2.87h-.91c-.64,1.76-1.64,2.88-3.01,3.35v.71h1.78v7.59c0,.9.24,1.57.71,2.02.47.45,1.14.67,2.01.67.5,0,1-.1,1.48-.3.49-.2.91-.48,1.28-.84v-.68c-.55.24-1.11.36-1.69.36-1.1,0-1.64-.55-1.64-1.64ZM156.12,24.41c-.16-.17-.24-.49-.24-.95v-14.79h-.21l-3.45,1.03v.59c.44.14.77.25.97.35.21.1.35.22.42.38.08.15.11.38.11.68v11.76c0,.46-.08.77-.24.95-.16.17-.45.28-.86.33l-.41.05v.75h5.16v-.75l-.41-.05c-.41-.05-.7-.16-.86-.33ZM166.29,23.59c-.52.3-1.11.44-1.78.44-1.08,0-1.99-.4-2.74-1.21-.75-.81-1.13-2.02-1.14-3.65h7.51c.02-.14.02-.36.02-.66,0-.79-.17-1.53-.51-2.21-.34-.68-.86-1.23-1.54-1.64-.69-.41-1.5-.62-2.44-.62-.85,0-1.67.25-2.44.75-.78.5-1.4,1.22-1.88,2.15-.48.93-.72,2-.72,3.2,0,1.12.21,2.12.64,2.97.43.86,1.02,1.52,1.78,1.98.76.46,1.62.69,2.58.69s1.91-.27,2.71-.8c.8-.53,1.46-1.34,1.98-2.44l-.53-.34c-.47.61-.97,1.06-1.48,1.36ZM161.66,15.83c.52-.56,1.12-.84,1.8-.84.73,0,1.31.29,1.74.87.43.58.68,1.35.75,2.32h-5.28c.14-1,.46-1.78.98-2.35ZM179.85,15.73c.3-.34.67-.56,1.13-.65v-.75h-4.32v.75l.43.07c.3.05.54.14.7.28.16.14.24.35.24.63,0,.3-.11.73-.34,1.28l-2.26,5.38-2.31-5.51c-.23-.53-.34-.93-.34-1.21,0-.24.09-.43.26-.56s.45-.22.83-.28l.43-.07v-.75h-5.09v.75c.29.05.53.15.71.31.18.16.36.4.53.72.17.32.4.83.71,1.53l3.24,7.54-.09.21c-.37.88-.65,1.52-.85,1.91-.2.39-.38.67-.55.83-.17.16-.37.24-.62.24-.21,0-.43-.04-.66-.11-.3-.09-.59-.14-.85-.14-.41,0-.75.16-1.03.48-.27.32-.46.7-.55,1.14.5.43,1.13.64,1.87.64.56,0,1.06-.14,1.5-.41s.86-.74,1.29-1.4c.43-.66.91-1.61,1.44-2.84l3.52-8.13c.38-.9.72-1.52,1.02-1.86ZM180.13,22.8c-.38,0-.71.13-.99.39-.28.26-.42.57-.42.93,0,.32.07.57.22.74.14.17.36.37.65.58.23.17.4.31.5.43s.16.28.16.48c0,.4-.17.75-.51,1.07-.34.32-.78.52-1.31.62v.77c.72-.06,1.33-.29,1.85-.7.52-.4.91-.89,1.16-1.47.26-.58.39-1.16.39-1.75,0-.62-.14-1.13-.43-1.52-.29-.39-.71-.58-1.26-.58ZM199.41,22.28l-5.57-12.69h-4.34v.8l.41.05c.47.05.84.16,1.1.35.26.19.39.5.39.92v11.26c0,.59-.13,1.01-.39,1.26-.26.25-.64.41-1.14.47l-.37.05v.8h5.16v-.8l-.37-.05c-.5-.06-.88-.22-1.14-.47-.26-.25-.39-.67-.39-1.26v-10.66l5.8,13.24h.78l5.89-13.31v11.19c0,.43-.13.73-.39.92-.26.19-.62.31-1.1.35l-.41.05v.8h6.03v-.8l-.41-.05c-.47-.05-.84-.16-1.1-.35-.26-.19-.39-.5-.39-.92v-11.71c0-.43.13-.73.39-.92.26-.19.62-.31,1.1-.35l.41-.05v-.8h-4.39l-5.57,12.69ZM225.54,13.3c-.67-1.2-1.6-2.12-2.8-2.76-1.2-.64-2.56-.96-4.1-.96h-7.17v.8l.41.05c.47.05.84.16,1.1.35.26.19.39.5.39.92v11.71c0,.43-.13.73-.39.92-.26.19-.62.31-1.1.35l-.41.05v.8h7.17c1.54,0,2.9-.33,4.1-.98,1.2-.65,2.13-1.58,2.8-2.79.67-1.21,1.01-2.62,1.01-4.25s-.34-3.02-1.01-4.22ZM223.29,21.45c-.46.98-1.11,1.73-1.94,2.26-.83.52-1.79.79-2.87.79h-1.39c-.5,0-.88-.07-1.12-.22-.24-.14-.37-.43-.37-.85v-12.78h2.56c1.22,0,2.26.32,3.14.96.88.64,1.54,1.52,2,2.63s.69,2.38.69,3.79c0,1.31-.23,2.45-.7,3.43Z"/>
          </g>
          <g id="LIFESTYLE_MEDICINE" data-name="LIFESTYLE MEDICINE">
            <path class="cls-1" d="M87.52,36.88h-.62v5.19h3v-.57h-2.38v-4.62ZM92.78,42.07h.62v-5.19h-.62v5.19ZM96.89,42.07h.62v-2.33h2.42v-.57h-2.42v-1.71h2.61v-.57h-3.22v5.19ZM103.8,39.65h2.47v-.57h-2.47v-1.63h2.65v-.57h-3.27v5.19h3.4v-.57h-2.78v-1.85ZM112.33,39.63c-.14-.11-.31-.21-.5-.28-.19-.07-.38-.14-.58-.21-.21-.06-.38-.13-.52-.19-.14-.06-.25-.13-.34-.21-.08-.07-.14-.16-.18-.25-.04-.09-.06-.19-.06-.31,0-.15.03-.28.1-.4.06-.11.15-.2.25-.27.11-.07.22-.12.36-.15.13-.03.27-.05.4-.05.19,0,.36.04.54.11.17.08.31.2.41.36l.51-.44c-.19-.22-.41-.38-.65-.47-.24-.09-.51-.14-.8-.14-.23,0-.45.03-.66.1-.21.06-.4.16-.57.28-.17.12-.3.28-.4.47-.1.19-.15.4-.15.65,0,.21.03.4.1.55.07.15.16.29.27.4.11.11.25.2.41.28.16.08.33.14.51.2.23.08.43.15.6.21.17.06.31.12.43.2.11.07.2.16.25.26.05.1.08.23.08.39,0,.15-.03.28-.1.39-.07.11-.16.21-.26.28-.11.08-.23.13-.36.17-.13.04-.27.06-.4.06-.23,0-.44-.05-.64-.15-.2-.1-.36-.24-.47-.43l-.53.43c.09.13.19.24.32.33.12.09.25.16.39.22.14.06.29.1.44.12.15.03.3.04.46.04.23,0,.46-.03.68-.09.22-.06.41-.15.58-.28.17-.12.3-.28.41-.47.1-.19.15-.42.15-.67s-.04-.47-.13-.63c-.09-.17-.2-.31-.35-.42ZM115.46,37.45h1.72v4.62h.62v-4.62h1.72v-.57h-4.05v.57ZM123.98,39.23l-1.46-2.34h-.79l1.94,2.95v2.23h.62v-2.23l1.94-2.95h-.74l-1.51,2.34ZM129.62,36.88h-.62v5.19h3v-.57h-2.38v-4.62ZM135.5,39.65h2.47v-.57h-2.47v-1.63h2.65v-.57h-3.27v5.19h3.4v-.57h-2.78v-1.85ZM148.38,40.95h-.01l-1.76-4.07h-.92v5.19h.62v-4.35h.01l1.87,4.35h.37l1.87-4.35h.01v4.35h.62v-5.19h-.9l-1.78,4.07ZM155.16,39.65h2.47v-.57h-2.47v-1.63h2.65v-.57h-3.27v5.19h3.4v-.57h-2.78v-1.85ZM165.12,37.96c-.13-.19-.29-.36-.46-.49-.17-.14-.35-.25-.54-.33-.19-.09-.38-.15-.57-.19-.19-.04-.37-.06-.54-.06h-2v5.19h2c.17,0,.35-.02.54-.06.19-.04.38-.1.57-.19.19-.09.37-.2.54-.33.17-.14.33-.3.46-.49.13-.19.24-.42.32-.67.08-.25.12-.54.12-.85s-.04-.6-.12-.85c-.08-.25-.18-.47-.32-.67ZM164.73,40.39c-.11.25-.25.46-.44.63-.19.16-.41.28-.66.36-.25.08-.53.12-.83.12h-1.17v-4.04h1.17c.3,0,.58.04.83.12.25.08.47.2.66.36.19.16.33.37.44.63.11.25.16.56.16.92s-.05.66-.16.92ZM168.75,42.07h.62v-5.19h-.62v5.19ZM176.05,41.44c-.25.12-.53.19-.85.19-.29,0-.56-.06-.8-.17-.24-.11-.45-.26-.62-.46-.17-.19-.31-.42-.41-.68-.1-.26-.15-.54-.15-.85,0-.28.05-.56.15-.82.1-.26.23-.49.41-.69.18-.2.39-.36.63-.47.24-.12.51-.18.8-.18.25,0,.49.05.72.16.23.11.42.26.58.47l.54-.39c-.22-.29-.49-.5-.82-.62-.33-.13-.66-.19-1.02-.19-.39,0-.74.07-1.06.21-.32.14-.6.33-.84.58-.23.24-.42.53-.55.86-.13.33-.19.69-.19,1.07s.07.76.2,1.09c.13.33.32.62.56.86.24.24.52.43.84.57.32.14.67.21,1.04.21.42,0,.79-.07,1.12-.22.33-.15.61-.38.85-.69l-.46-.39c-.19.23-.4.41-.65.54ZM180.23,42.07h.62v-5.19h-.62v5.19ZM188.15,41.19h-.01l-3.01-4.31h-.78v5.19h.62v-4.31h.01l3.01,4.31h.78v-5.19h-.62v4.31ZM192.88,41.5v-1.85h2.47v-.57h-2.47v-1.63h2.65v-.57h-3.27v5.19h3.4v-.57h-2.78Z"/>
          </g>
        </g>
      </g>
    </g>
    <g id="Icon-2" data-name="Icon">
      <g id="Icon-3" data-name="Icon">
        <g id="Shape_1" data-name="Shape 1">
          <circle class="cls-2" cx="25.95" cy="25.44" r="23.09"/>
        </g>
        <g id="Shape_2" data-name="Shape 2">
          <circle class="cls-3" cx="25.95" cy="25.44" r="20.83"/>
        </g>
        <g id="_3" data-name="3">
          <path class="cls-2" d="M21.79,33.8c-1.71-3.32-5.45-7.07-13.72-6.92,0,0-.41.09-.19.51.24.46.84.92,1.34,2.21.27.79.97,2.64,2.5,4.06.32.32.74.65,1.2.92.79.46,1.75.79,2.91.88h.09c3.29.28,5.77,3,5.77,6.28l-.14,4.1c.54.13,1.1.22,1.66.31v-7.45s-.05-1.3-.65-3.05c-.19-.6-.46-1.2-.79-1.85h.01Z"/>
          <path class="cls-2" d="M28.54,18.24c0-2.72-1.01-5.17-2.72-7.02-1.71,1.85-2.77,4.35-2.77,7.02s1.06,5.17,2.77,7.02c1.71-1.85,2.72-4.3,2.72-7.02h0Z"/>
          <path class="cls-2" d="M35.14,26.09c4.52-2.07,6.1-7.85,6.23-8.31.14-.41-.24-.41-.24-.41-13.17.14-15.19,14.83-15.19,14.83,0,0-2.04-14.64-15.19-14.83,0,0-.37-.05-.24.41s1.66,6.23,6.23,8.31c3.41,1.57,6.05,2.64,7.43,5.82.46,1.15.69,2.4.69,3.65v10.76c.37.02.74.04,1.11.04.34,0,.68,0,1.01-.01v-10.79c0-1.25.19-2.5.69-3.65,1.39-3.19,4.02-4.25,7.43-5.82h.02Z"/>
          <path class="cls-2" d="M43.82,26.92c-8.27-.14-12.01,3.6-13.72,6.92-.32.65-.6,1.3-.79,1.85-.6,1.75-.65,3.05-.65,3.05v7.48c.57-.06,1.11-.15,1.66-.26l-.13-4.16c0-3.27,2.5-6.01,5.77-6.28h.09c1.15-.05,2.12-.41,2.91-.88.46-.28.84-.6,1.2-.92,1.52-1.44,2.21-3.27,2.5-4.06.46-1.3,1.11-1.8,1.34-2.21.19-.46-.19-.51-.19-.51v-.02Z"/>
        </g>
      </g>
    </g>
  </g>
</svg>