<?xml version="1.0" encoding="UTF-8"?>
<svg id="Logo" xmlns="http://www.w3.org/2000/svg" viewBox="0 0 195.17 60.91">
  <defs>
    <style>
      .cls-1 {
        fill-rule: evenodd;
      }

      .cls-1, .cls-2 {
        fill: #fff;
      }
    </style>
  </defs>
  <g id="Logo-3" data-name="Logo">
    <g id="Text-2" data-name="Text">
      <g id="Text-3" data-name="Text">

      </g>
    </g>
  </g>
  <g id="Logo-4" data-name="Logo">
    <g id="Text-4" data-name="Text">
      <g id="Text-5" data-name="Text">
        <g>
          <g id="Beth_Motley_MD" data-name="Beth Motley, MD">
            <path class="cls-1" d="M78.37,15.02c-.64-.32-1.29-.51-1.96-.57.94-.21,1.73-.62,2.35-1.21s.94-1.4.94-2.42c0-1.28-.48-2.21-1.45-2.81-.97-.6-2.19-.9-3.67-.9h-6.62v.8l.41.05c.47.05.84.16,1.1.35.26.19.39.5.39.92v11.71c0,.43-.13.73-.39.92-.26.19-.62.31-1.1.35l-.41.05v.8h7.03c1.69,0,3.05-.38,4.08-1.13,1.03-.75,1.54-1.86,1.54-3.34,0-.85-.21-1.58-.64-2.19-.43-.61-.96-1.07-1.6-1.39ZM72.09,8.16h1.94c2.24,0,3.36.97,3.36,2.92,0,1.03-.29,1.8-.87,2.3-.58.5-1.36.75-2.35.75h-2.08v-5.97ZM74.69,22.02h-1.12c-.5,0-.88-.07-1.12-.22-.24-.14-.37-.43-.37-.85v-5.76h2.26c1.16,0,2.09.28,2.79.85.7.57,1.05,1.46,1.05,2.68,0,2.2-1.16,3.3-3.49,3.3ZM90.34,21.12c-.52.3-1.11.44-1.78.44-1.08,0-1.99-.4-2.74-1.21-.75-.81-1.13-2.02-1.14-3.65h7.51c.02-.14.02-.36.02-.66,0-.79-.17-1.53-.51-2.21-.34-.68-.86-1.23-1.54-1.64-.69-.41-1.5-.62-2.44-.62-.85,0-1.67.25-2.44.75-.78.5-1.4,1.22-1.88,2.15-.48.93-.72,2-.72,3.2,0,1.12.21,2.12.64,2.97.43.86,1.02,1.52,1.78,1.98.76.46,1.62.69,2.58.69s1.91-.27,2.71-.8c.8-.53,1.46-1.34,1.98-2.44l-.53-.34c-.47.61-.97,1.06-1.48,1.36ZM85.7,13.36c.52-.56,1.12-.84,1.8-.84.73,0,1.31.29,1.74.87.43.58.68,1.35.75,2.32h-5.28c.14-1,.46-1.78.98-2.35ZM97.39,20.22v-7.18h2.88l.3-1.18h-3.17v-2.87h-.91c-.64,1.76-1.64,2.88-3.01,3.35v.71h1.78v7.59c0,.9.24,1.57.71,2.02.47.45,1.14.67,2.01.67.5,0,1-.1,1.48-.3.49-.2.91-.48,1.28-.84v-.68c-.55.24-1.11.36-1.69.36-1.1,0-1.64-.55-1.64-1.64ZM110.22,21.94c-.16.17-.45.28-.86.33l-.41.05v.75h5.16v-.75l-.41-.05c-.41-.05-.7-.16-.86-.33-.16-.17-.24-.49-.24-.95v-6.13c0-.9-.29-1.67-.86-2.34-.57-.66-1.42-.99-2.55-.99-.78,0-1.5.19-2.16.57s-1.18.84-1.54,1.37v-7.27h-.21l-3.45,1.03v.59c.44.14.77.25.97.35.21.1.35.22.42.38.08.15.11.38.11.68v11.76c0,.46-.08.77-.24.95-.16.17-.45.28-.86.33l-.41.05v.75h5.16v-.75l-.41-.05c-.41-.05-.7-.16-.86-.33-.16-.17-.24-.49-.24-.95v-6.9c.35-.33.76-.6,1.22-.81.46-.21.96-.31,1.5-.31.69,0,1.23.22,1.63.65.4.43.61,1.04.61,1.81v5.56c0,.46-.08.77-.24.95ZM126.31,22.27l-.37-.05c-.5-.06-.88-.22-1.14-.47-.26-.25-.39-.67-.39-1.26v-10.66l5.8,13.24h.78l5.89-13.31v11.19c0,.43-.13.73-.39.92-.26.19-.62.31-1.1.35l-.41.05v.8h6.03v-.8l-.41-.05c-.47-.05-.84-.16-1.1-.35-.26-.19-.39-.5-.39-.92v-11.71c0-.43.13-.73.39-.92.26-.19.62-.31,1.1-.35l.41-.05v-.8h-4.39l-5.57,12.69-5.57-12.69h-4.34v.8l.41.05c.47.05.84.16,1.1.35s.39.5.39.92v11.26c0,.59-.13,1.01-.39,1.26-.26.25-.64.41-1.14.47l-.37.05v.8h5.16v-.8ZM150.58,12.31c-.86-.49-1.79-.73-2.8-.73s-1.94.25-2.8.75c-.86.5-1.55,1.2-2.06,2.11-.51.9-.77,1.93-.77,3.06s.26,2.15.77,3.04c.51.89,1.2,1.58,2.06,2.06.86.49,1.79.73,2.8.73s1.94-.25,2.8-.75c.86-.5,1.55-1.2,2.06-2.11.51-.9.77-1.93.77-3.06s-.26-2.15-.77-3.04c-.51-.89-1.2-1.58-2.06-2.06ZM150.22,21.15c-.53.82-1.3,1.23-2.31,1.23-.7,0-1.31-.25-1.82-.75-.51-.5-.9-1.16-1.16-1.98-.27-.82-.4-1.7-.4-2.64,0-1.34.27-2.42.8-3.24s1.3-1.23,2.31-1.23c.67,0,1.26.24,1.78.71.52.47.91,1.11,1.19,1.93.27.81.41,1.73.41,2.75,0,1.34-.27,2.42-.8,3.24ZM158.54,20.22v-7.18h2.88l.3-1.18h-3.17v-2.87h-.91c-.64,1.76-1.64,2.88-3.01,3.35v.71h1.78v7.59c0,.9.24,1.57.71,2.02.47.45,1.14.67,2.01.67.5,0,1-.1,1.48-.3.49-.2.91-.48,1.28-.84v-.68c-.55.24-1.11.36-1.69.36-1.1,0-1.64-.55-1.64-1.64ZM166.88,21.94c-.16-.17-.24-.49-.24-.95V6.2h-.21l-3.45,1.03v.59c.44.14.77.25.97.35.21.1.35.22.42.38.08.15.11.38.11.68v11.76c0,.46-.08.77-.24.95-.16.17-.45.28-.86.33l-.41.05v.75h5.16v-.75l-.41-.05c-.41-.05-.7-.16-.86-.33ZM177.06,21.12c-.52.3-1.11.44-1.78.44-1.08,0-1.99-.4-2.74-1.21-.75-.81-1.13-2.02-1.14-3.65h7.51c.02-.14.02-.36.02-.66,0-.79-.17-1.53-.51-2.21-.34-.68-.86-1.23-1.54-1.64-.69-.41-1.5-.62-2.44-.62-.85,0-1.67.25-2.44.75-.78.5-1.4,1.22-1.88,2.15-.48.93-.72,2-.72,3.2,0,1.12.21,2.12.64,2.97.43.86,1.02,1.52,1.78,1.98.76.46,1.62.69,2.58.69s1.91-.27,2.71-.8c.8-.53,1.46-1.34,1.98-2.44l-.53-.34c-.47.61-.97,1.06-1.48,1.36ZM172.42,13.36c.52-.56,1.12-.84,1.8-.84.73,0,1.31.29,1.74.87.43.58.68,1.35.75,2.32h-5.28c.14-1,.46-1.78.98-2.35ZM190.61,13.26c.3-.34.67-.56,1.13-.65v-.75h-4.32v.75l.43.07c.3.05.54.14.7.28.16.14.24.35.24.63,0,.3-.11.73-.34,1.28l-2.26,5.38-2.31-5.51c-.23-.53-.34-.93-.34-1.21,0-.24.09-.43.26-.56.18-.13.45-.22.83-.28l.43-.07v-.75h-5.09v.75c.29.05.53.15.71.31.18.16.36.4.53.72.17.32.4.83.71,1.53l3.24,7.54-.09.21c-.37.88-.65,1.52-.85,1.91-.2.39-.38.67-.55.83-.17.16-.37.24-.62.24-.21,0-.43-.04-.66-.11-.3-.09-.59-.14-.85-.14-.41,0-.75.16-1.03.48s-.46.7-.55,1.14c.5.43,1.13.64,1.87.64.56,0,1.06-.14,1.5-.41.43-.27.86-.74,1.29-1.4.43-.66.91-1.61,1.44-2.84l3.52-8.13c.38-.9.72-1.52,1.02-1.86ZM192.16,20.91c-.29-.39-.71-.58-1.26-.58-.38,0-.71.13-.99.39-.28.26-.42.57-.42.93,0,.32.07.57.22.74.14.17.36.37.65.58.23.17.4.31.5.43.11.12.16.28.16.48,0,.39-.17.75-.51,1.07-.34.32-.78.52-1.31.62v.77c.72-.06,1.33-.29,1.85-.7.52-.4.91-.89,1.16-1.47.26-.58.39-1.16.39-1.75,0-.62-.14-1.13-.43-1.52ZM121.68,40.81l-5.57-12.69h-4.34v.8l.41.05c.47.05.84.16,1.1.35.26.19.39.5.39.92v11.26c0,.59-.13,1.01-.39,1.26s-.64.41-1.14.47l-.37.05v.8h5.16v-.8l-.37-.05c-.5-.06-.88-.22-1.14-.47-.26-.25-.39-.67-.39-1.26v-10.66l5.8,13.24h.78l5.89-13.31v11.19c0,.43-.13.73-.39.92-.26.19-.62.31-1.1.35l-.41.05v.8h6.03v-.8l-.41-.05c-.47-.05-.84-.16-1.1-.35-.26-.19-.39-.5-.39-.92v-11.71c0-.43.13-.73.39-.92.26-.19.62-.31,1.1-.35l.41-.05v-.8h-4.39l-5.57,12.69ZM145.01,29.07c-1.2-.64-2.56-.96-4.1-.96h-7.17v.8l.41.05c.47.05.84.16,1.1.35.26.19.39.5.39.92v11.71c0,.43-.13.73-.39.92-.26.19-.62.31-1.1.35l-.41.05v.8h7.17c1.54,0,2.9-.33,4.1-.98s2.13-1.58,2.8-2.79,1-2.62,1-4.25-.33-3.02-1-4.22c-.67-1.2-1.6-2.12-2.8-2.76ZM145.56,39.98c-.46.98-1.11,1.73-1.94,2.26-.83.52-1.79.79-2.87.79h-1.39c-.5,0-.88-.07-1.12-.22-.24-.14-.37-.43-.37-.85v-12.78h2.56c1.22,0,2.26.32,3.14.96s1.54,1.52,2,2.63c.46,1.12.69,2.38.69,3.79,0,1.31-.23,2.45-.7,3.43Z"/>
          </g>
          <g id="LIFESTYLE_MEDICINE" data-name="LIFESTYLE MEDICINE">
            <path class="cls-1" d="M68.55,49.24h-.63v5.33h3.08v-.59h-2.44v-4.74ZM74.7,54.57h.63v-5.33h-.63v5.33ZM79.68,54.57h.63v-2.39h2.49v-.59h-2.49v-1.76h2.68v-.59h-3.31v5.33ZM87.52,52.09h2.54v-.59h-2.54v-1.67h2.72v-.59h-3.36v5.33h3.49v-.59h-2.86v-1.9ZM97.03,52.07c-.15-.12-.32-.21-.51-.29-.19-.08-.39-.15-.6-.21-.21-.07-.39-.13-.54-.2-.15-.07-.26-.14-.35-.21-.09-.08-.15-.16-.18-.25-.04-.09-.06-.2-.06-.32,0-.16.03-.29.1-.41.07-.12.15-.21.26-.28.11-.07.23-.12.37-.16.14-.04.27-.05.41-.05.19,0,.37.04.55.12.18.08.32.2.42.37l.52-.45c-.2-.23-.42-.39-.67-.49-.25-.09-.52-.14-.83-.14-.24,0-.46.03-.68.1-.22.07-.41.16-.58.29-.17.13-.31.29-.41.48-.1.19-.15.41-.15.67,0,.22.03.41.1.57.07.16.16.29.28.41s.26.21.42.29c.16.08.34.15.53.21.24.08.44.15.62.21.18.06.32.13.44.2.12.08.2.16.26.27.06.1.08.24.08.4,0,.15-.04.28-.11.4-.07.12-.16.21-.27.29-.11.08-.24.14-.37.18-.14.04-.28.06-.41.06-.23,0-.45-.05-.66-.15-.21-.1-.37-.25-.48-.44l-.54.44c.09.14.2.25.32.34.13.09.26.17.4.23.14.06.29.1.45.13.16.03.31.04.47.04.24,0,.48-.03.7-.09.23-.06.43-.16.6-.29.17-.13.31-.29.42-.49.11-.2.16-.43.16-.69s-.04-.48-.13-.65c-.09-.17-.21-.32-.35-.43ZM101.01,49.83h1.76v4.74h.63v-4.74h1.76v-.59h-4.16v.59ZM110.51,51.65l-1.5-2.41h-.81l1.99,3.03v2.29h.63v-2.29l1.99-3.03h-.76l-1.55,2.41ZM117.06,49.24h-.63v5.33h3.08v-.59h-2.44v-4.74ZM123.85,52.09h2.54v-.59h-2.54v-1.67h2.72v-.59h-3.36v5.33h3.49v-.59h-2.86v-1.9ZM138.59,53.42h-.02l-1.81-4.18h-.94v5.33h.63v-4.47h.02l1.92,4.47h.38l1.92-4.47h.02v4.47h.63v-5.33h-.92l-1.83,4.18ZM146.31,52.09h2.54v-.59h-2.54v-1.67h2.72v-.59h-3.36v5.33h3.49v-.59h-2.86v-1.9ZM157.29,50.35c-.14-.2-.29-.37-.47-.51-.18-.14-.36-.25-.56-.34-.19-.09-.39-.15-.58-.19-.2-.04-.38-.06-.56-.06h-2.05v5.33h2.05c.18,0,.36-.02.56-.06.2-.04.39-.1.58-.19.19-.09.38-.2.56-.34.18-.14.34-.31.47-.51.14-.2.24-.43.32-.68.08-.26.12-.55.12-.88s-.04-.62-.12-.88c-.08-.26-.19-.49-.32-.68ZM156.89,52.85c-.11.26-.26.48-.45.64-.19.17-.42.29-.68.37-.26.08-.55.12-.85.12h-1.21v-4.15h1.21c.31,0,.59.04.85.12.26.08.49.2.68.37.19.17.34.38.45.64.11.26.17.57.17.94s-.06.68-.17.94ZM161.77,54.57h.63v-5.33h-.63v5.33ZM170.03,53.93c-.26.13-.55.19-.87.19-.3,0-.58-.06-.83-.17-.25-.12-.46-.27-.64-.47-.18-.2-.32-.43-.42-.7-.1-.27-.15-.56-.15-.87,0-.29.05-.57.15-.84.1-.27.24-.5.42-.71.18-.2.4-.36.64-.49.25-.12.52-.18.82-.18.26,0,.5.05.74.16.24.11.43.27.6.49l.55-.4c-.23-.3-.51-.51-.84-.64-.33-.13-.68-.2-1.04-.2-.4,0-.76.07-1.09.22-.33.15-.62.34-.86.59-.24.25-.43.55-.56.89-.13.34-.2.71-.2,1.1s.07.78.21,1.12c.14.34.33.64.57.88s.53.44.86.58.69.21,1.07.21c.43,0,.81-.08,1.15-.23.34-.15.63-.39.87-.71l-.48-.4c-.19.24-.41.43-.67.55ZM175.07,54.57h.63v-5.33h-.63v5.33ZM183.96,53.67h-.02l-3.09-4.42h-.8v5.33h.63v-4.42h.02l3.09,4.42h.8v-5.33h-.63v4.42ZM189.57,53.98v-1.9h2.54v-.59h-2.54v-1.67h2.72v-.59h-3.36v5.33h3.49v-.59h-2.86Z"/>
          </g>
        </g>
      </g>
    </g>
    <g id="Icon-3" data-name="Icon">
      <path class="cls-2" d="M30.43,4.58c14.29,0,25.87,11.58,25.87,25.87s-11.58,25.87-25.87,25.87S4.56,44.74,4.56,30.45,16.14,4.58,30.43,4.58M30.26,28.92c2.23-2.42,3.56-5.62,3.56-9.18s-1.32-6.76-3.56-9.18c-2.23,2.42-3.62,5.68-3.62,9.18s1.39,6.76,3.62,9.18M30.47,57.81c.45,0,.89,0,1.32-.02v-14.11c0-1.63.25-3.27.91-4.78,1.82-4.17,5.25-5.56,9.72-7.61h.03c5.92-2.71,7.98-10.28,8.15-10.88.18-.54-.31-.54-.31-.54-17.22.18-19.87,19.4-19.87,19.4,0,0-2.67-19.15-19.87-19.4,0,0-.01,0-.04,0-.11,0-.41.04-.27.54.17.6,2.17,8.15,8.15,10.88,4.47,2.05,7.92,3.45,9.72,7.61.6,1.51.91,3.14.91,4.78v14.08c.48.03.97.05,1.45.05M17.2,43.56h.12c4.3.37,7.55,3.93,7.55,8.21l-.18,5.36c.71.17,1.43.29,2.17.4v-9.75s-.06-1.69-.85-3.99c-.25-.79-.6-1.57-1.03-2.42l.02.02c-2.19-4.26-6.95-9.06-17.36-9.06-.19,0-.39,0-.59,0,0,0-.54.12-.25.66.31.6,1.09,1.2,1.76,2.9.35,1.03,1.26,3.45,3.27,5.31.42.42.97.85,1.57,1.2,1.03.6,2.3,1.03,3.81,1.16M33.99,57.65c.74-.08,1.45-.2,2.17-.34l-.17-5.44c0-4.28,3.27-7.86,7.55-8.21h.12c1.51-.06,2.77-.54,3.81-1.16.6-.37,1.09-.79,1.57-1.2,1.99-1.88,2.9-4.28,3.27-5.31.6-1.69,1.45-2.36,1.76-2.9.25-.6-.25-.66-.25-.66v-.03c-.2,0-.4,0-.59,0-10.4,0-15.16,4.8-17.36,9.06-.42.85-.79,1.69-1.03,2.42-.79,2.3-.85,3.99-.85,3.99v9.78M30.43,2.61C15.08,2.61,2.59,15.1,2.59,30.45s12.49,27.84,27.84,27.84,27.84-12.49,27.84-27.84S45.78,2.61,30.43,2.61h0ZM30.25,26.23c-1.27-1.93-1.96-4.18-1.96-6.5s.69-4.57,1.96-6.5c1.24,1.91,1.91,4.16,1.91,6.5s-.67,4.59-1.91,6.5h0ZM33.21,35.06c1.73-4.97,5.87-12.44,15.24-13.41-.91,2.37-2.92,6.34-6.55,8.08-.06.02-.12.04-.17.07l-.68.31c-3.06,1.39-5.81,2.65-7.85,4.95h0ZM27.66,35.11c-2.05-2.34-4.83-3.61-7.92-5.02l-.65-.3c-3.74-1.71-5.78-5.76-6.69-8.14,9.4,1.01,13.53,8.5,15.26,13.46h0ZM17.27,41.91c-1.13-.1-2.15-.41-3.04-.93-.45-.27-.9-.61-1.23-.94-1.25-1.16-2.2-2.72-2.87-4.68,0-.02-.02-.04-.02-.07-.19-.48-.39-.9-.59-1.25,6.68.41,11.36,3.09,13.93,7.97.02.04.04.08.06.12.45.88.74,1.55.93,2.16.29.86.48,1.63.59,2.22-1.59-2.56-4.33-4.32-7.56-4.6-.05,0-.09,0-.14,0h-.05ZM35.82,46.62c.11-.59.29-1.36.58-2.21.21-.61.54-1.38.95-2.22,2.54-4.94,7.24-7.66,13.98-8.08-.21.38-.41.82-.59,1.33-.26.73-1.06,2.97-2.82,4.64-.42.37-.84.72-1.32,1.02-.94.56-1.92.86-2.97.91h-.09s-.09,0-.14,0c-3.25.27-5.99,2.04-7.59,4.61h0Z"/>
    </g>
  </g>
</svg>