<?xml version="1.0" encoding="UTF-8"?>
<svg xmlns="http://www.w3.org/2000/svg"
     width="24in" height="18in"
     viewBox="0 0 1728 1296">
  <!--
    170 Otis St - For Sale Yard Sign
    Size: 24" x 18" landscape (standard VistaPrint yard sign)
  -->

  <!-- White background -->
  <rect width="1728" height="1296" fill="#FFFFFF"/>

  <!-- === RED BANNER - TOP === -->
  <rect x="0" y="0" width="1728" height="260" fill="#CC0000"/>

  <!-- "FOR SALE" text -->
  <text x="864" y="180"
        font-family="Arial Black, Impact, Arial, Helvetica, sans-serif"
        font-weight="900"
        font-size="170"
        fill="#FFFFFF"
        text-anchor="middle"
        letter-spacing="8">FOR SALE</text>

  <!-- === WHITE BODY AREA === -->

  <!-- "BUILDABLE LOT" -->
  <text x="864" y="420"
        font-family="Arial Black, Impact, Arial, Helvetica, sans-serif"
        font-weight="900"
        font-size="120"
        fill="#1a2744"
        text-anchor="middle"
        letter-spacing="4">BUILDABLE LOT</text>

  <!-- "$325,000" -->
  <text x="864" y="600"
        font-family="Arial Black, Impact, Arial, Helvetica, sans-serif"
        font-weight="900"
        font-size="185"
        fill="#1a2744"
        text-anchor="middle">$325,000</text>

  <!-- "(864) 568-0304" -->
  <text x="864" y="760"
        font-family="Arial, Helvetica, sans-serif"
        font-weight="700"
        font-size="105"
        fill="#1a2744"
        text-anchor="middle">(864) 568-0304</text>

  <!-- "Call or Text 24/7" -->
  <text x="864" y="850"
        font-family="Arial, Helvetica, sans-serif"
        font-weight="400"
        font-style="italic"
        font-size="68"
        fill="#555555"
        text-anchor="middle">Call or Text 24/7</text>

  <!-- === NAVY BANNER === -->
  <rect x="0" y="910" width="1728" height="230" fill="#1a2744"/>

  <!-- Website URL -->
  <text x="120" y="1055"
        font-family="Arial, Helvetica, sans-serif"
        font-weight="700"
        font-size="76"
        fill="#FFFFFF">https://170otis.pages.dev/</text>

  <!-- QR Code - positioned in right side of navy banner -->
  <!-- QR encodes: https://170otis.pages.dev/ -->
  <g transform="translate(1490, 920) scale(8)">
    <rect x="-0.5" y="-0.5" width="26" height="26" fill="#FFFFFF" rx="1"/>
    <path fill="#000000" d="M0,0h1v1h-1zM1,0h1v1h-1zM2,0h1v1h-1zM3,0h1v1h-1zM4,0h1v1h-1zM5,0h1v1h-1zM6,0h1v1h-1zM9,0h1v1h-1zM11,0h1v1h-1zM12,0h1v1h-1zM14,0h1v1h-1zM15,0h1v1h-1zM18,0h1v1h-1zM19,0h1v1h-1zM20,0h1v1h-1zM21,0h1v1h-1zM22,0h1v1h-1zM23,0h1v1h-1zM24,0h1v1h-1zM0,1h1v1h-1zM6,1h1v1h-1zM8,1h1v1h-1zM9,1h1v1h-1zM13,1h1v1h-1zM15,1h1v1h-1zM18,1h1v1h-1zM24,1h1v1h-1zM0,2h1v1h-1zM2,2h1v1h-1zM3,2h1v1h-1zM4,2h1v1h-1zM6,2h1v1h-1zM9,2h1v1h-1zM16,2h1v1h-1zM18,2h1v1h-1zM20,2h1v1h-1zM21,2h1v1h-1zM22,2h1v1h-1zM24,2h1v1h-1zM0,3h1v1h-1zM2,3h1v1h-1zM3,3h1v1h-1zM4,3h1v1h-1zM6,3h1v1h-1zM9,3h1v1h-1zM10,3h1v1h-1zM12,3h1v1h-1zM14,3h1v1h-1zM15,3h1v1h-1zM16,3h1v1h-1zM18,3h1v1h-1zM20,3h1v1h-1zM21,3h1v1h-1zM22,3h1v1h-1zM24,3h1v1h-1zM0,4h1v1h-1zM2,4h1v1h-1zM3,4h1v1h-1zM4,4h1v1h-1zM6,4h1v1h-1zM8,4h1v1h-1zM10,4h1v1h-1zM11,4h1v1h-1zM12,4h1v1h-1zM14,4h1v1h-1zM15,4h1v1h-1zM18,4h1v1h-1zM20,4h1v1h-1zM21,4h1v1h-1zM22,4h1v1h-1zM24,4h1v1h-1zM0,5h1v1h-1zM6,5h1v1h-1zM10,5h1v1h-1zM11,5h1v1h-1zM14,5h1v1h-1zM15,5h1v1h-1zM18,5h1v1h-1zM24,5h1v1h-1zM0,6h1v1h-1zM1,6h1v1h-1zM2,6h1v1h-1zM3,6h1v1h-1zM4,6h1v1h-1zM5,6h1v1h-1zM6,6h1v1h-1zM8,6h1v1h-1zM10,6h1v1h-1zM12,6h1v1h-1zM14,6h1v1h-1zM16,6h1v1h-1zM18,6h1v1h-1zM19,6h1v1h-1zM20,6h1v1h-1zM21,6h1v1h-1zM22,6h1v1h-1zM23,6h1v1h-1zM24,6h1v1h-1zM11,7h1v1h-1zM12,7h1v1h-1zM13,7h1v1h-1zM14,7h1v1h-1zM16,7h1v1h-1zM0,8h1v1h-1zM2,8h1v1h-1zM4,8h1v1h-1zM6,8h1v1h-1zM9,8h1v1h-1zM10,8h1v1h-1zM13,8h1v1h-1zM15,8h1v1h-1zM16,8h1v1h-1zM20,8h1v1h-1zM23,8h1v1h-1zM2,9h1v1h-1zM3,9h1v1h-1zM4,9h1v1h-1zM10,9h1v1h-1zM13,9h1v1h-1zM18,9h1v1h-1zM19,9h1v1h-1zM24,9h1v1h-1zM2,10h1v1h-1zM3,10h1v1h-1zM4,10h1v1h-1zM5,10h1v1h-1zM6,10h1v1h-1zM11,10h1v1h-1zM12,10h1v1h-1zM17,10h1v1h-1zM18,10h1v1h-1zM19,10h1v1h-1zM20,10h1v1h-1zM22,10h1v1h-1zM23,10h1v1h-1zM24,10h1v1h-1zM5,11h1v1h-1zM8,11h1v1h-1zM9,11h1v1h-1zM11,11h1v1h-1zM13,11h1v1h-1zM14,11h1v1h-1zM18,11h1v1h-1zM19,11h1v1h-1zM23,11h1v1h-1zM0,12h1v1h-1zM1,12h1v1h-1zM3,12h1v1h-1zM5,12h1v1h-1zM6,12h1v1h-1zM7,12h1v1h-1zM8,12h1v1h-1zM9,12h1v1h-1zM11,12h1v1h-1zM12,12h1v1h-1zM13,12h1v1h-1zM18,12h1v1h-1zM19,12h1v1h-1zM21,12h1v1h-1zM23,12h1v1h-1zM24,12h1v1h-1zM2,13h1v1h-1zM4,13h1v1h-1zM7,13h1v1h-1zM10,13h1v1h-1zM11,13h1v1h-1zM13,13h1v1h-1zM14,13h1v1h-1zM16,13h1v1h-1zM18,13h1v1h-1zM19,13h1v1h-1zM21,13h1v1h-1zM24,13h1v1h-1zM0,14h1v1h-1zM2,14h1v1h-1zM6,14h1v1h-1zM7,14h1v1h-1zM8,14h1v1h-1zM9,14h1v1h-1zM13,14h1v1h-1zM14,14h1v1h-1zM18,14h1v1h-1zM19,14h1v1h-1zM22,14h1v1h-1zM23,14h1v1h-1zM24,14h1v1h-1zM1,15h1v1h-1zM3,15h1v1h-1zM4,15h1v1h-1zM5,15h1v1h-1zM7,15h1v1h-1zM8,15h1v1h-1zM9,15h1v1h-1zM10,15h1v1h-1zM12,15h1v1h-1zM13,15h1v1h-1zM14,15h1v1h-1zM15,15h1v1h-1zM17,15h1v1h-1zM20,15h1v1h-1zM23,15h1v1h-1zM0,16h1v1h-1zM2,16h1v1h-1zM4,16h1v1h-1zM6,16h1v1h-1zM9,16h1v1h-1zM11,16h1v1h-1zM12,16h1v1h-1zM13,16h1v1h-1zM14,16h1v1h-1zM15,16h1v1h-1zM16,16h1v1h-1zM17,16h1v1h-1zM18,16h1v1h-1zM19,16h1v1h-1zM20,16h1v1h-1zM21,16h1v1h-1zM8,17h1v1h-1zM15,17h1v1h-1zM16,17h1v1h-1zM20,17h1v1h-1zM21,17h1v1h-1zM23,17h1v1h-1zM24,17h1v1h-1zM0,18h1v1h-1zM1,18h1v1h-1zM2,18h1v1h-1zM3,18h1v1h-1zM4,18h1v1h-1zM5,18h1v1h-1zM6,18h1v1h-1zM9,18h1v1h-1zM12,18h1v1h-1zM13,18h1v1h-1zM15,18h1v1h-1zM16,18h1v1h-1zM18,18h1v1h-1zM20,18h1v1h-1zM21,18h1v1h-1zM23,18h1v1h-1zM24,18h1v1h-1zM0,19h1v1h-1zM6,19h1v1h-1zM10,19h1v1h-1zM12,19h1v1h-1zM13,19h1v1h-1zM16,19h1v1h-1zM20,19h1v1h-1zM21,19h1v1h-1zM23,19h1v1h-1zM24,19h1v1h-1zM0,20h1v1h-1zM2,20h1v1h-1zM3,20h1v1h-1zM4,20h1v1h-1zM6,20h1v1h-1zM8,20h1v1h-1zM9,20h1v1h-1zM10,20h1v1h-1zM13,20h1v1h-1zM16,20h1v1h-1zM17,20h1v1h-1zM18,20h1v1h-1zM19,20h1v1h-1zM20,20h1v1h-1zM21,20h1v1h-1zM0,21h1v1h-1zM2,21h1v1h-1zM3,21h1v1h-1zM4,21h1v1h-1zM6,21h1v1h-1zM9,21h1v1h-1zM10,21h1v1h-1zM12,21h1v1h-1zM13,21h1v1h-1zM15,21h1v1h-1zM19,21h1v1h-1zM20,21h1v1h-1zM21,21h1v1h-1zM22,21h1v1h-1zM0,22h1v1h-1zM2,22h1v1h-1zM3,22h1v1h-1zM4,22h1v1h-1zM6,22h1v1h-1zM8,22h1v1h-1zM10,22h1v1h-1zM15,22h1v1h-1zM16,22h1v1h-1zM20,22h1v1h-1zM24,22h1v1h-1zM0,23h1v1h-1zM6,23h1v1h-1zM11,23h1v1h-1zM12,23h1v1h-1zM13,23h1v1h-1zM16,23h1v1h-1zM18,23h1v1h-1zM20,23h1v1h-1zM21,23h1v1h-1zM23,23h1v1h-1zM0,24h1v1h-1zM1,24h1v1h-1zM2,24h1v1h-1zM3,24h1v1h-1zM4,24h1v1h-1zM5,24h1v1h-1zM6,24h1v1h-1zM8,24h1v1h-1zM9,24h1v1h-1zM12,24h1v1h-1zM13,24h1v1h-1zM15,24h1v1h-1zM16,24h1v1h-1zM17,24h1v1h-1zM19,24h1v1h-1zM23,24h1v1h-1zM24,24h1v1h-1z"/>
  </g>

  <!-- === BOTTOM SECTION === -->

  <!-- "ALL UTILITIES AT THE STREET" -->
  <text x="864" y="1210"
        font-family="Arial, Helvetica, sans-serif"
        font-weight="700"
        font-size="50"
        fill="#1a2744"
        text-anchor="middle"
        letter-spacing="3">ALL UTILITIES AT THE STREET</text>

  <!-- "Greater Sullivan | Greenville, SC 29605" -->
  <text x="864" y="1275"
        font-family="Arial, Helvetica, sans-serif"
        font-weight="400"
        font-size="44"
        fill="#555555"
        text-anchor="middle">Greater Sullivan  |  Greenville, SC 29605</text>

</svg>